<svg width="74" height="74" viewBox="0 0 74 74" fill="none" xmlns="http://www.w3.org/2000/svg">
<path d="M37.0031 4C28.0407 4 26.916 4.03919 23.396 4.19938C19.8828 4.36025 17.4848 4.91645 15.3865 5.73252C13.216 6.5754 11.3749 7.70291 9.54062 9.53787C7.70498 11.3721 6.57746 13.2133 5.73183 15.3831C4.9137 17.482 4.35682 19.8807 4.19869 23.3925C4.04125 26.9126 4 28.038 4 37.0003C4 45.9627 4.03988 47.084 4.19938 50.604C4.36094 54.1172 4.91713 56.5152 5.73252 58.6135C6.57609 60.784 7.7036 62.6251 9.53856 64.4594C11.3721 66.295 13.2133 67.4253 15.3824 68.2682C17.482 69.0842 19.8807 69.6404 23.3932 69.8013C26.9132 69.9615 28.0373 70.0007 36.999 70.0007C45.962 70.0007 47.0833 69.9615 50.6034 69.8013C54.1165 69.6404 56.5173 69.0842 58.6169 68.2682C60.7867 67.4253 62.6251 66.295 64.4587 64.4594C66.2943 62.6251 67.4218 60.784 68.2675 58.6142C69.0787 56.5152 69.6356 54.1165 69.8006 50.6047C69.9587 47.0847 70 45.9627 70 37.0003C70 28.038 69.9587 26.9132 69.8006 23.3932C69.6356 19.88 69.0787 17.482 68.2675 15.3837C67.4218 13.2133 66.2943 11.3721 64.4587 9.53787C62.623 7.70223 60.7874 6.57471 58.6149 5.73252C56.5111 4.91645 54.1117 4.36025 50.5985 4.19938C47.0785 4.03919 45.9579 4 36.9928 4H37.0031ZM34.0427 9.94694C34.9213 9.94556 35.9017 9.94694 37.0031 9.94694C45.8142 9.94694 46.8585 9.97856 50.338 10.1367C53.5555 10.2838 55.3018 10.8214 56.465 11.2731C58.0051 11.8713 59.103 12.5863 60.2573 13.7413C61.4123 14.8963 62.1274 15.9963 62.7269 17.5363C63.1786 18.6982 63.7169 20.4445 63.8633 23.662C64.0214 27.1408 64.0558 28.1858 64.0558 36.9928C64.0558 45.7997 64.0214 46.8448 63.8633 50.3235C63.7162 53.5411 63.1786 55.2873 62.7269 56.4492C62.1287 57.9893 61.4123 59.0858 60.2573 60.2401C59.1023 61.3952 58.0057 62.1102 56.465 62.7083C55.3032 63.1621 53.5555 63.6983 50.338 63.8454C46.8592 64.0036 45.8142 64.0379 37.0031 64.0379C28.1913 64.0379 27.147 64.0036 23.6682 63.8454C20.4507 63.6969 18.7044 63.1593 17.5405 62.7076C16.0004 62.1095 14.9004 61.3945 13.7454 60.2395C12.5904 59.0844 11.8754 57.9872 11.2759 56.4465C10.8242 55.2846 10.2859 53.5383 10.1394 50.3208C9.98131 46.842 9.94969 45.797 9.94969 36.9845C9.94969 28.1721 9.98131 27.1326 10.1394 23.6538C10.2866 20.4362 10.8242 18.69 11.2759 17.5267C11.874 15.9867 12.5904 14.8867 13.7454 13.7317C14.9004 12.5767 16.0004 11.8616 17.5405 11.2621C18.7037 10.8084 20.4507 10.2721 23.6682 10.1243C26.7125 9.98681 27.8922 9.94556 34.0427 9.93869V9.94694ZM54.6184 15.4264C52.4321 15.4264 50.6584 17.1981 50.6584 19.385C50.6584 21.5713 52.4321 23.3451 54.6184 23.3451C56.8047 23.3451 58.5784 21.5713 58.5784 19.385C58.5784 17.1988 56.8047 15.425 54.6184 15.425V15.4264ZM37.0031 20.0533C27.6441 20.0533 20.056 27.6413 20.056 37.0003C20.056 46.3594 27.6441 53.944 37.0031 53.944C46.3621 53.944 53.9474 46.3594 53.9474 37.0003C53.9474 27.6413 46.3614 20.0533 37.0024 20.0533H37.0031ZM37.0031 26.0002C43.0779 26.0002 48.0032 30.9248 48.0032 37.0003C48.0032 43.0752 43.0779 48.0005 37.0031 48.0005C30.9276 48.0005 26.003 43.0752 26.003 37.0003C26.003 30.9248 30.9276 26.0002 37.0031 26.0002V26.0002Z" fill="black"/>
</svg>
