<svg width="74" height="74" viewBox="0 0 74 74" fill="none" xmlns="http://www.w3.org/2000/svg">
<path d="M37 2C17.6625 2 2 17.6625 2 37C2 52.4875 12.0187 65.5688 25.9312 70.2063C27.6812 70.5125 28.3375 69.4625 28.3375 68.5438C28.3375 67.7125 28.2938 64.9563 28.2938 62.025C19.5 63.6438 17.225 59.8812 16.525 57.9125C16.1312 56.9062 14.425 53.8 12.9375 52.9687C11.7125 52.3125 9.9625 50.6937 12.8938 50.65C15.65 50.6062 17.6188 53.1875 18.275 54.2375C21.425 59.5312 26.4563 58.0438 28.4688 57.125C28.775 54.85 29.6937 53.3187 30.7 52.4437C22.9125 51.5687 14.775 48.55 14.775 35.1625C14.775 31.3562 16.1313 28.2062 18.3625 25.7562C18.0125 24.8812 16.7875 21.2937 18.7125 16.4812C18.7125 16.4812 21.6438 15.5625 28.3375 20.0688C31.1375 19.2813 34.1125 18.8875 37.0875 18.8875C40.0625 18.8875 43.0375 19.2813 45.8375 20.0688C52.5313 15.5188 55.4625 16.4812 55.4625 16.4812C57.3875 21.2937 56.1625 24.8812 55.8125 25.7562C58.0438 28.2062 59.4 31.3125 59.4 35.1625C59.4 48.5937 51.2188 51.5687 43.4313 52.4437C44.7 53.5375 45.7938 55.6375 45.7938 58.9188C45.7938 63.6 45.75 67.3625 45.75 68.5438C45.75 69.4625 46.4063 70.5563 48.1563 70.2063C55.1044 67.8606 61.142 63.3951 65.4193 57.4383C69.6966 51.4815 71.9981 44.3334 72 37C72 17.6625 56.3375 2 37 2Z" fill="black"/>
</svg>
