<svg width="150" height="150" viewBox="0 0 150 150" fill="none" xmlns="http://www.w3.org/2000/svg">
<path d="M74.175 4C55.1182 4 52.7266 4.08522 45.2419 4.43359C37.7718 4.78344 32.6729 5.99299 28.2113 7.7677C23.5962 9.60071 19.6813 12.0527 15.7811 16.0432C11.8779 20.0321 9.4805 24.0361 7.68242 28.7547C5.94281 33.3193 4.7587 38.5357 4.42248 46.1728C4.08771 53.8278 4 56.2753 4 75.7656C4 95.256 4.08479 97.6945 4.42394 105.35C4.76748 112.99 5.95012 118.205 7.68388 122.768C9.47758 127.488 11.875 131.492 15.7767 135.481C19.6755 139.473 23.5903 141.931 28.2025 143.764C32.667 145.538 37.7674 146.748 45.2361 147.098C52.7208 147.446 55.1109 147.531 74.1662 147.531C93.2245 147.531 95.6088 147.446 103.093 147.098C110.564 146.748 115.668 145.538 120.133 143.764C124.746 141.931 128.656 139.473 132.554 135.481C136.457 131.492 138.855 127.488 140.653 122.769C142.378 118.205 143.562 112.988 143.913 105.351C144.249 97.696 144.337 95.256 144.337 75.7656C144.337 56.2753 144.249 53.8293 143.913 46.1743C143.562 38.5342 142.378 33.3193 140.653 28.7562C138.855 24.0361 136.457 20.0321 132.554 16.0432C128.651 12.0512 124.748 9.59922 120.128 7.7677C115.655 5.99299 110.553 4.78344 103.083 4.43359C95.5985 4.08522 93.2157 4 74.1531 4H74.175ZM67.8802 16.9328C69.7485 16.9298 71.8331 16.9328 74.175 16.9328C92.9102 16.9328 95.1307 17.0015 102.529 17.3454C109.371 17.6654 113.084 18.8346 115.557 19.8169C118.832 21.1176 121.166 22.6725 123.621 25.1843C126.077 27.6961 127.597 30.0883 128.872 33.4374C129.832 35.9641 130.977 39.7617 131.288 46.7589C131.625 54.3242 131.698 56.5967 131.698 75.7492C131.698 94.9017 131.625 97.1742 131.288 104.74C130.975 111.737 129.832 115.534 128.872 118.061C127.6 121.41 126.077 123.795 123.621 126.305C121.165 128.817 118.833 130.372 115.557 131.673C113.087 132.659 109.371 133.826 102.529 134.146C95.1322 134.489 92.9102 134.564 74.175 134.564C55.4384 134.564 53.2178 134.489 45.8208 134.146C38.9793 133.823 35.2662 132.653 32.7913 131.671C29.5167 130.37 27.1777 128.815 24.7218 126.304C22.2659 123.792 20.7456 121.406 19.4708 118.055C18.5104 115.528 17.3658 111.731 17.0544 104.734C16.7182 97.1683 16.6509 94.8957 16.6509 75.7313C16.6509 56.5668 16.7182 54.3062 17.0544 46.7409C17.3672 39.7438 18.5104 35.9462 19.4708 33.4164C20.7427 30.0674 22.2659 27.6752 24.7218 25.1634C27.1777 22.6516 29.5167 21.0967 32.7913 19.7929C35.2647 18.8061 38.9793 17.64 45.8208 17.3185C52.2939 17.0195 54.8025 16.9298 67.8802 16.9148V16.9328ZM111.631 28.8489C106.982 28.8489 103.21 32.7018 103.21 37.4577C103.21 42.2122 106.982 46.0696 111.631 46.0696C116.279 46.0696 120.051 42.2122 120.051 37.4577C120.051 32.7033 116.279 28.8459 111.631 28.8459V28.8489ZM74.175 38.911C54.2747 38.911 38.1402 55.4126 38.1402 75.7656C38.1402 96.1187 54.2747 112.613 74.175 112.613C94.0753 112.613 110.204 96.1187 110.204 75.7656C110.204 55.4126 94.0738 38.911 74.1735 38.911H74.175ZM74.175 51.8438C87.092 51.8438 97.5647 62.5533 97.5647 75.7656C97.5647 88.9765 87.092 99.6875 74.175 99.6875C61.2566 99.6875 50.7853 88.9765 50.7853 75.7656C50.7853 62.5533 61.2566 51.8438 74.175 51.8438V51.8438Z" fill="black"/>
</svg>
