<svg width="150" height="150" viewBox="0 0 150 150" fill="none" xmlns="http://www.w3.org/2000/svg">
<path d="M75 2C34.6675 2 2 34.22 2 74C2 105.86 22.8962 132.77 51.9137 142.31C55.5637 142.94 56.9325 140.78 56.9325 138.89C56.9325 137.18 56.8413 131.51 56.8413 125.48C38.5 128.81 33.755 121.07 32.295 117.02C31.4737 114.95 27.915 108.56 24.8125 106.85C22.2575 105.5 18.6075 102.17 24.7213 102.08C30.47 101.99 34.5763 107.3 35.945 109.46C42.515 120.35 53.0088 117.29 57.2063 115.4C57.845 110.72 59.7612 107.57 61.86 105.77C45.6175 103.97 28.645 97.76 28.645 70.22C28.645 62.39 31.4738 55.91 36.1275 50.87C35.3975 49.07 32.8425 41.69 36.8575 31.79C36.8575 31.79 42.9713 29.9 56.9325 39.17C62.7725 37.55 68.9775 36.74 75.1825 36.74C81.3875 36.74 87.5925 37.55 93.4325 39.17C107.394 29.81 113.508 31.79 113.508 31.79C117.523 41.69 114.968 49.07 114.238 50.87C118.891 55.91 121.72 62.3 121.72 70.22C121.72 97.85 104.656 103.97 88.4138 105.77C91.06 108.02 93.3413 112.34 93.3413 119.09C93.3413 128.72 93.25 136.46 93.25 138.89C93.25 140.78 94.6188 143.03 98.2688 142.31C112.761 137.485 125.353 128.299 134.275 116.045C143.196 103.791 147.996 89.0858 148 74C148 34.22 115.333 2 75 2Z" fill="black"/>
</svg>
