<svg width="28" height="28" viewBox="0 0 28 28" fill="none" xmlns="http://www.w3.org/2000/svg">
<path d="M13.9998 0L16.92 1.51252L20.1715 2.00532L21.645 4.94543L23.9859 7.25532L23.4498 10.5L23.9859 13.7447L21.645 16.0546L20.1715 18.9947L16.92 19.4875L13.9998 21L11.0796 19.4875L7.82802 18.9947L6.35455 16.0546L4.01367 13.7447L4.54976 10.5L4.01367 7.25532L6.35455 4.94543L7.82802 2.00532L11.0796 1.51252L13.9998 0Z" fill="black"/>
<path d="M6.99977 20.6392V28L13.9998 26.25L20.9998 28V20.6392L17.4681 21.1744L13.9997 22.9708L10.5314 21.1744L6.99977 20.6392Z" fill="black"/>
</svg>
