<svg width="28" height="28" viewBox="0 0 28 28" fill="none" xmlns="http://www.w3.org/2000/svg">
<path d="M28 14C28 21.732 21.732 28 14 28C6.26801 28 0 21.732 0 14C0 6.26801 6.26801 0 14 0C21.732 0 28 6.26801 28 14ZM20.1236 24.612L17.8825 16.3948C17.7787 16.0141 17.4329 15.75 17.0384 15.75H10.9616C10.5671 15.75 10.2213 16.0141 10.1175 16.3948L7.87642 24.612C9.67791 25.6538 11.7693 26.25 14 26.25C16.2307 26.25 18.3221 25.6538 20.1236 24.612ZM21.6523 23.5664C24.4551 21.3214 26.25 17.8703 26.25 14C26.25 7.23451 20.7655 1.75 14 1.75C7.23451 1.75 1.75 7.23451 1.75 14C1.75 17.8703 3.54488 21.3214 6.34767 23.5664L8.42914 15.9343C8.71927 14.8705 9.63922 14.1102 10.7207 14.011L12.7429 7.2704C13.117 6.02326 14.883 6.02326 15.2571 7.2704L17.2793 14.011C18.3608 14.1102 19.2807 14.8705 19.5709 15.9343L21.6523 23.5664Z" fill="black"/>
</svg>
